<svg xmlns="http://www.w3.org/2000/svg" xmlns:xlink="http://www.w3.org/1999/xlink" width="100" zoomAndPan="magnify" viewBox="0 0 75 74.999997" height="100" preserveAspectRatio="xMidYMid meet" version="1.0"><defs><clipPath id="100c995523"><path d="M 19.21875 0.0195312 L 67.21875 0.0195312 L 67.21875 74.984375 L 19.21875 74.984375 Z M 19.21875 0.0195312 " clip-rule="nonzero"/></clipPath><clipPath id="dbf847308a"><path d="M 23.925781 54.464844 L 47.542969 54.464844 L 47.542969 59.410156 L 23.925781 59.410156 Z M 23.925781 54.464844 " clip-rule="nonzero"/></clipPath><clipPath id="f7d75cdfaf"><path d="M 67.40625 33.050781 C 66.957031 31.59375 65.082031 31.242188 63.769531 31.351562 C 61.753906 31.511719 59.738281 32.351562 58.109375 33.53125 C 57.25 34.148438 56.515625 34.890625 55.8125 35.679688 C 55.054688 36.527344 54.304688 37.433594 53.339844 38.0625 C 52.390625 38.679688 51.175781 39.074219 50.058594 38.714844 C 49.089844 38.398438 48.445312 37.574219 48.085938 36.65625 C 47.308594 34.675781 47.425781 32.328125 47.390625 30.242188 C 47.34375 27.667969 47.414062 25.089844 47.597656 22.523438 C 47.789062 19.898438 48.09375 17.28125 48.519531 14.683594 C 48.886719 12.464844 49.773438 9.878906 48.992188 7.660156 C 48.453125 6.132812 46.851562 4.710938 45.140625 5.214844 C 43.242188 5.777344 42.667969 7.925781 42.558594 9.664062 C 42.417969 11.9375 42.355469 14.195312 42.074219 16.460938 C 41.777344 18.851562 41.34375 21.230469 40.71875 23.558594 C 40.492188 24.40625 40.226562 25.246094 39.941406 26.078125 C 39.0625 22.394531 39.324219 18.539062 39.648438 14.800781 C 39.820312 12.804688 40.027344 10.8125 40.132812 8.816406 C 40.230469 6.992188 40.363281 5.03125 39.925781 3.246094 C 39.558594 1.757812 38.53125 0.296875 36.917969 0.046875 C 35.433594 -0.179688 34.222656 0.921875 33.71875 2.234375 C 33.035156 4.015625 33.484375 6.105469 33.585938 7.953125 C 33.695312 9.914062 33.738281 11.878906 33.730469 13.84375 C 33.71875 18.070312 33.492188 22.304688 32.988281 26.503906 C 31.84375 23.726562 31.808594 20.597656 31.871094 17.636719 C 31.933594 14.460938 32.238281 11.238281 31.804688 8.078125 C 31.648438 6.960938 31.285156 5.671875 30.355469 4.945312 C 29.378906 4.183594 28.113281 4.519531 27.378906 5.441406 C 26.371094 6.703125 26.59375 8.539062 26.605469 10.046875 C 26.617188 12.039062 26.632812 14.035156 26.644531 16.027344 C 26.675781 20.039062 26.703125 24.046875 26.730469 28.058594 C 26.265625 25.953125 25.804688 23.847656 25.34375 21.742188 C 25.054688 20.425781 24.765625 19.109375 24.476562 17.792969 C 24.210938 16.585938 24.003906 15.339844 23.65625 14.152344 C 23.28125 12.871094 22.128906 11.1875 20.617188 12.207031 C 19.058594 13.257812 19.148438 15.785156 19.292969 17.402344 C 19.511719 19.832031 20.28125 22.167969 20.875 24.519531 C 21.527344 27.113281 21.785156 29.722656 21.734375 32.394531 C 21.648438 37.195312 20.867188 41.980469 21.40625 46.777344 C 21.804688 50.324219 22.859375 54.027344 25.335938 56.652344 C 25.375 58.824219 25.542969 70.445312 24.578125 74.984375 L 45.011719 74.984375 C 45.011719 74.984375 43.125 60.992188 47.152344 56.367188 C 48.671875 55.582031 50.082031 54.582031 51.332031 53.390625 C 54.554688 50.328125 56.648438 46.289062 59.4375 42.855469 C 60.96875 40.964844 62.636719 39.1875 64.425781 37.539062 C 65.597656 36.457031 68 34.972656 67.40625 33.050781 Z M 67.40625 33.050781 " clip-rule="nonzero"/></clipPath><clipPath id="60837f2cc4"><path d="M 19.847656 27.476562 L 24.476562 27.476562 L 24.476562 31.398438 L 19.847656 31.398438 Z M 19.847656 27.476562 " clip-rule="nonzero"/></clipPath><clipPath id="9b36838a0c"><path d="M 67.40625 33.050781 C 66.957031 31.59375 65.082031 31.242188 63.769531 31.351562 C 61.753906 31.511719 59.738281 32.351562 58.109375 33.53125 C 57.25 34.148438 56.515625 34.890625 55.8125 35.679688 C 55.054688 36.527344 54.304688 37.433594 53.339844 38.0625 C 52.390625 38.679688 51.175781 39.074219 50.058594 38.714844 C 49.089844 38.398438 48.445312 37.574219 48.085938 36.65625 C 47.308594 34.675781 47.425781 32.328125 47.390625 30.242188 C 47.34375 27.667969 47.414062 25.089844 47.597656 22.523438 C 47.789062 19.898438 48.09375 17.28125 48.519531 14.683594 C 48.886719 12.464844 49.773438 9.878906 48.992188 7.660156 C 48.453125 6.132812 46.851562 4.710938 45.140625 5.214844 C 43.242188 5.777344 42.667969 7.925781 42.558594 9.664062 C 42.417969 11.9375 42.355469 14.195312 42.074219 16.460938 C 41.777344 18.851562 41.34375 21.230469 40.71875 23.558594 C 40.492188 24.40625 40.226562 25.246094 39.941406 26.078125 C 39.0625 22.394531 39.324219 18.539062 39.648438 14.800781 C 39.820312 12.804688 40.027344 10.8125 40.132812 8.816406 C 40.230469 6.992188 40.363281 5.03125 39.925781 3.246094 C 39.558594 1.757812 38.53125 0.296875 36.917969 0.046875 C 35.433594 -0.179688 34.222656 0.921875 33.71875 2.234375 C 33.035156 4.015625 33.484375 6.105469 33.585938 7.953125 C 33.695312 9.914062 33.738281 11.878906 33.730469 13.84375 C 33.71875 18.070312 33.492188 22.304688 32.988281 26.503906 C 31.84375 23.726562 31.808594 20.597656 31.871094 17.636719 C 31.933594 14.460938 32.238281 11.238281 31.804688 8.078125 C 31.648438 6.960938 31.285156 5.671875 30.355469 4.945312 C 29.378906 4.183594 28.113281 4.519531 27.378906 5.441406 C 26.371094 6.703125 26.59375 8.539062 26.605469 10.046875 C 26.617188 12.039062 26.632812 14.035156 26.644531 16.027344 C 26.675781 20.039062 26.703125 24.046875 26.730469 28.058594 C 26.265625 25.953125 25.804688 23.847656 25.34375 21.742188 C 25.054688 20.425781 24.765625 19.109375 24.476562 17.792969 C 24.210938 16.585938 24.003906 15.339844 23.65625 14.152344 C 23.28125 12.871094 22.128906 11.1875 20.617188 12.207031 C 19.058594 13.257812 19.148438 15.785156 19.292969 17.402344 C 19.511719 19.832031 20.28125 22.167969 20.875 24.519531 C 21.527344 27.113281 21.785156 29.722656 21.734375 32.394531 C 21.648438 37.195312 20.867188 41.980469 21.40625 46.777344 C 21.804688 50.324219 22.859375 54.027344 25.335938 56.652344 C 25.375 58.824219 25.542969 70.445312 24.578125 74.984375 L 45.011719 74.984375 C 45.011719 74.984375 43.125 60.992188 47.152344 56.367188 C 48.671875 55.582031 50.082031 54.582031 51.332031 53.390625 C 54.554688 50.328125 56.648438 46.289062 59.4375 42.855469 C 60.96875 40.964844 62.636719 39.1875 64.425781 37.539062 C 65.597656 36.457031 68 34.972656 67.40625 33.050781 Z M 67.40625 33.050781 " clip-rule="nonzero"/></clipPath><clipPath id="c013af6513"><path d="M 50.128906 36.105469 L 54.523438 36.105469 L 54.523438 40.109375 L 50.128906 40.109375 Z M 50.128906 36.105469 " clip-rule="nonzero"/></clipPath><clipPath id="f7c120d3e0"><path d="M 67.40625 33.050781 C 66.957031 31.59375 65.082031 31.242188 63.769531 31.351562 C 61.753906 31.511719 59.738281 32.351562 58.109375 33.53125 C 57.25 34.148438 56.515625 34.890625 55.8125 35.679688 C 55.054688 36.527344 54.304688 37.433594 53.339844 38.0625 C 52.390625 38.679688 51.175781 39.074219 50.058594 38.714844 C 49.089844 38.398438 48.445312 37.574219 48.085938 36.65625 C 47.308594 34.675781 47.425781 32.328125 47.390625 30.242188 C 47.34375 27.667969 47.414062 25.089844 47.597656 22.523438 C 47.789062 19.898438 48.09375 17.28125 48.519531 14.683594 C 48.886719 12.464844 49.773438 9.878906 48.992188 7.660156 C 48.453125 6.132812 46.851562 4.710938 45.140625 5.214844 C 43.242188 5.777344 42.667969 7.925781 42.558594 9.664062 C 42.417969 11.9375 42.355469 14.195312 42.074219 16.460938 C 41.777344 18.851562 41.34375 21.230469 40.71875 23.558594 C 40.492188 24.40625 40.226562 25.246094 39.941406 26.078125 C 39.0625 22.394531 39.324219 18.539062 39.648438 14.800781 C 39.820312 12.804688 40.027344 10.8125 40.132812 8.816406 C 40.230469 6.992188 40.363281 5.03125 39.925781 3.246094 C 39.558594 1.757812 38.53125 0.296875 36.917969 0.046875 C 35.433594 -0.179688 34.222656 0.921875 33.71875 2.234375 C 33.035156 4.015625 33.484375 6.105469 33.585938 7.953125 C 33.695312 9.914062 33.738281 11.878906 33.730469 13.84375 C 33.71875 18.070312 33.492188 22.304688 32.988281 26.503906 C 31.84375 23.726562 31.808594 20.597656 31.871094 17.636719 C 31.933594 14.460938 32.238281 11.238281 31.804688 8.078125 C 31.648438 6.960938 31.285156 5.671875 30.355469 4.945312 C 29.378906 4.183594 28.113281 4.519531 27.378906 5.441406 C 26.371094 6.703125 26.59375 8.539062 26.605469 10.046875 C 26.617188 12.039062 26.632812 14.035156 26.644531 16.027344 C 26.675781 20.039062 26.703125 24.046875 26.730469 28.058594 C 26.265625 25.953125 25.804688 23.847656 25.34375 21.742188 C 25.054688 20.425781 24.765625 19.109375 24.476562 17.792969 C 24.210938 16.585938 24.003906 15.339844 23.65625 14.152344 C 23.28125 12.871094 22.128906 11.1875 20.617188 12.207031 C 19.058594 13.257812 19.148438 15.785156 19.292969 17.402344 C 19.511719 19.832031 20.28125 22.167969 20.875 24.519531 C 21.527344 27.113281 21.785156 29.722656 21.734375 32.394531 C 21.648438 37.195312 20.867188 41.980469 21.40625 46.777344 C 21.804688 50.324219 22.859375 54.027344 25.335938 56.652344 C 25.375 58.824219 25.542969 70.445312 24.578125 74.984375 L 45.011719 74.984375 C 45.011719 74.984375 43.125 60.992188 47.152344 56.367188 C 48.671875 55.582031 50.082031 54.582031 51.332031 53.390625 C 54.554688 50.328125 56.648438 46.289062 59.4375 42.855469 C 60.96875 40.964844 62.636719 39.1875 64.425781 37.539062 C 65.597656 36.457031 68 34.972656 67.40625 33.050781 Z M 67.40625 33.050781 " clip-rule="nonzero"/></clipPath><clipPath id="908e692693"><path d="M 49.03125 36.34375 L 66.839844 36.34375 L 66.839844 57 L 49.03125 57 Z M 49.03125 36.34375 " clip-rule="nonzero"/></clipPath><clipPath id="a541424d85"><path d="M 67.40625 33.050781 C 66.957031 31.59375 65.082031 31.242188 63.769531 31.351562 C 61.753906 31.511719 59.738281 32.351562 58.109375 33.53125 C 57.25 34.148438 56.515625 34.890625 55.8125 35.679688 C 55.054688 36.527344 54.304688 37.433594 53.339844 38.0625 C 52.390625 38.679688 51.175781 39.074219 50.058594 38.714844 C 49.089844 38.398438 48.445312 37.574219 48.085938 36.65625 C 47.308594 34.675781 47.425781 32.328125 47.390625 30.242188 C 47.34375 27.667969 47.414062 25.089844 47.597656 22.523438 C 47.789062 19.898438 48.09375 17.28125 48.519531 14.683594 C 48.886719 12.464844 49.773438 9.878906 48.992188 7.660156 C 48.453125 6.132812 46.851562 4.710938 45.140625 5.214844 C 43.242188 5.777344 42.667969 7.925781 42.558594 9.664062 C 42.417969 11.9375 42.355469 14.195312 42.074219 16.460938 C 41.777344 18.851562 41.34375 21.230469 40.71875 23.558594 C 40.492188 24.40625 40.226562 25.246094 39.941406 26.078125 C 39.0625 22.394531 39.324219 18.539062 39.648438 14.800781 C 39.820312 12.804688 40.027344 10.8125 40.132812 8.816406 C 40.230469 6.992188 40.363281 5.03125 39.925781 3.246094 C 39.558594 1.757812 38.53125 0.296875 36.917969 0.046875 C 35.433594 -0.179688 34.222656 0.921875 33.71875 2.234375 C 33.035156 4.015625 33.484375 6.105469 33.585938 7.953125 C 33.695312 9.914062 33.738281 11.878906 33.730469 13.84375 C 33.71875 18.070312 33.492188 22.304688 32.988281 26.503906 C 31.84375 23.726562 31.808594 20.597656 31.871094 17.636719 C 31.933594 14.460938 32.238281 11.238281 31.804688 8.078125 C 31.648438 6.960938 31.285156 5.671875 30.355469 4.945312 C 29.378906 4.183594 28.113281 4.519531 27.378906 5.441406 C 26.371094 6.703125 26.59375 8.539062 26.605469 10.046875 C 26.617188 12.039062 26.632812 14.035156 26.644531 16.027344 C 26.675781 20.039062 26.703125 24.046875 26.730469 28.058594 C 26.265625 25.953125 25.804688 23.847656 25.34375 21.742188 C 25.054688 20.425781 24.765625 19.109375 24.476562 17.792969 C 24.210938 16.585938 24.003906 15.339844 23.65625 14.152344 C 23.28125 12.871094 22.128906 11.1875 20.617188 12.207031 C 19.058594 13.257812 19.148438 15.785156 19.292969 17.402344 C 19.511719 19.832031 20.28125 22.167969 20.875 24.519531 C 21.527344 27.113281 21.785156 29.722656 21.734375 32.394531 C 21.648438 37.195312 20.867188 41.980469 21.40625 46.777344 C 21.804688 50.324219 22.859375 54.027344 25.335938 56.652344 C 25.375 58.824219 25.542969 70.445312 24.578125 74.984375 L 45.011719 74.984375 C 45.011719 74.984375 43.125 60.992188 47.152344 56.367188 C 48.671875 55.582031 50.082031 54.582031 51.332031 53.390625 C 54.554688 50.328125 56.648438 46.289062 59.4375 42.855469 C 60.96875 40.964844 62.636719 39.1875 64.425781 37.539062 C 65.597656 36.457031 68 34.972656 67.40625 33.050781 Z M 67.40625 33.050781 " clip-rule="nonzero"/></clipPath><clipPath id="274c98d9df"><path d="M 45.972656 13.199219 L 50.285156 13.199219 L 50.285156 14.375 L 45.972656 14.375 Z M 45.972656 13.199219 " clip-rule="nonzero"/></clipPath><clipPath id="46d5144097"><path d="M 67.40625 33.050781 C 66.957031 31.59375 65.082031 31.242188 63.769531 31.351562 C 61.753906 31.511719 59.738281 32.351562 58.109375 33.53125 C 57.25 34.148438 56.515625 34.890625 55.8125 35.679688 C 55.054688 36.527344 54.304688 37.433594 53.339844 38.0625 C 52.390625 38.679688 51.175781 39.074219 50.058594 38.714844 C 49.089844 38.398438 48.445312 37.574219 48.085938 36.65625 C 47.308594 34.675781 47.425781 32.328125 47.390625 30.242188 C 47.34375 27.667969 47.414062 25.089844 47.597656 22.523438 C 47.789062 19.898438 48.09375 17.28125 48.519531 14.683594 C 48.886719 12.464844 49.773438 9.878906 48.992188 7.660156 C 48.453125 6.132812 46.851562 4.710938 45.140625 5.214844 C 43.242188 5.777344 42.667969 7.925781 42.558594 9.664062 C 42.417969 11.9375 42.355469 14.195312 42.074219 16.460938 C 41.777344 18.851562 41.34375 21.230469 40.71875 23.558594 C 40.492188 24.40625 40.226562 25.246094 39.941406 26.078125 C 39.0625 22.394531 39.324219 18.539062 39.648438 14.800781 C 39.820312 12.804688 40.027344 10.8125 40.132812 8.816406 C 40.230469 6.992188 40.363281 5.03125 39.925781 3.246094 C 39.558594 1.757812 38.53125 0.296875 36.917969 0.046875 C 35.433594 -0.179688 34.222656 0.921875 33.71875 2.234375 C 33.035156 4.015625 33.484375 6.105469 33.585938 7.953125 C 33.695312 9.914062 33.738281 11.878906 33.730469 13.84375 C 33.71875 18.070312 33.492188 22.304688 32.988281 26.503906 C 31.84375 23.726562 31.808594 20.597656 31.871094 17.636719 C 31.933594 14.460938 32.238281 11.238281 31.804688 8.078125 C 31.648438 6.960938 31.285156 5.671875 30.355469 4.945312 C 29.378906 4.183594 28.113281 4.519531 27.378906 5.441406 C 26.371094 6.703125 26.59375 8.539062 26.605469 10.046875 C 26.617188 12.039062 26.632812 14.035156 26.644531 16.027344 C 26.675781 20.039062 26.703125 24.046875 26.730469 28.058594 C 26.265625 25.953125 25.804688 23.847656 25.34375 21.742188 C 25.054688 20.425781 24.765625 19.109375 24.476562 17.792969 C 24.210938 16.585938 24.003906 15.339844 23.65625 14.152344 C 23.28125 12.871094 22.128906 11.1875 20.617188 12.207031 C 19.058594 13.257812 19.148438 15.785156 19.292969 17.402344 C 19.511719 19.832031 20.28125 22.167969 20.875 24.519531 C 21.527344 27.113281 21.785156 29.722656 21.734375 32.394531 C 21.648438 37.195312 20.867188 41.980469 21.40625 46.777344 C 21.804688 50.324219 22.859375 54.027344 25.335938 56.652344 C 25.375 58.824219 25.542969 70.445312 24.578125 74.984375 L 45.011719 74.984375 C 45.011719 74.984375 43.125 60.992188 47.152344 56.367188 C 48.671875 55.582031 50.082031 54.582031 51.332031 53.390625 C 54.554688 50.328125 56.648438 46.289062 59.4375 42.855469 C 60.96875 40.964844 62.636719 39.1875 64.425781 37.539062 C 65.597656 36.457031 68 34.972656 67.40625 33.050781 Z M 67.40625 33.050781 " clip-rule="nonzero"/></clipPath><clipPath id="6f1f17adfd"><path d="M 45.421875 19.945312 L 49.816406 19.945312 L 49.816406 21.121094 L 45.421875 21.121094 Z M 45.421875 19.945312 " clip-rule="nonzero"/></clipPath><clipPath id="9734054a76"><path d="M 67.40625 33.050781 C 66.957031 31.59375 65.082031 31.242188 63.769531 31.351562 C 61.753906 31.511719 59.738281 32.351562 58.109375 33.53125 C 57.25 34.148438 56.515625 34.890625 55.8125 35.679688 C 55.054688 36.527344 54.304688 37.433594 53.339844 38.0625 C 52.390625 38.679688 51.175781 39.074219 50.058594 38.714844 C 49.089844 38.398438 48.445312 37.574219 48.085938 36.65625 C 47.308594 34.675781 47.425781 32.328125 47.390625 30.242188 C 47.34375 27.667969 47.414062 25.089844 47.597656 22.523438 C 47.789062 19.898438 48.09375 17.28125 48.519531 14.683594 C 48.886719 12.464844 49.773438 9.878906 48.992188 7.660156 C 48.453125 6.132812 46.851562 4.710938 45.140625 5.214844 C 43.242188 5.777344 42.667969 7.925781 42.558594 9.664062 C 42.417969 11.9375 42.355469 14.195312 42.074219 16.460938 C 41.777344 18.851562 41.34375 21.230469 40.71875 23.558594 C 40.492188 24.40625 40.226562 25.246094 39.941406 26.078125 C 39.0625 22.394531 39.324219 18.539062 39.648438 14.800781 C 39.820312 12.804688 40.027344 10.8125 40.132812 8.816406 C 40.230469 6.992188 40.363281 5.03125 39.925781 3.246094 C 39.558594 1.757812 38.53125 0.296875 36.917969 0.046875 C 35.433594 -0.179688 34.222656 0.921875 33.71875 2.234375 C 33.035156 4.015625 33.484375 6.105469 33.585938 7.953125 C 33.695312 9.914062 33.738281 11.878906 33.730469 13.84375 C 33.71875 18.070312 33.492188 22.304688 32.988281 26.503906 C 31.84375 23.726562 31.808594 20.597656 31.871094 17.636719 C 31.933594 14.460938 32.238281 11.238281 31.804688 8.078125 C 31.648438 6.960938 31.285156 5.671875 30.355469 4.945312 C 29.378906 4.183594 28.113281 4.519531 27.378906 5.441406 C 26.371094 6.703125 26.59375 8.539062 26.605469 10.046875 C 26.617188 12.039062 26.632812 14.035156 26.644531 16.027344 C 26.675781 20.039062 26.703125 24.046875 26.730469 28.058594 C 26.265625 25.953125 25.804688 23.847656 25.34375 21.742188 C 25.054688 20.425781 24.765625 19.109375 24.476562 17.792969 C 24.210938 16.585938 24.003906 15.339844 23.65625 14.152344 C 23.28125 12.871094 22.128906 11.1875 20.617188 12.207031 C 19.058594 13.257812 19.148438 15.785156 19.292969 17.402344 C 19.511719 19.832031 20.28125 22.167969 20.875 24.519531 C 21.527344 27.113281 21.785156 29.722656 21.734375 32.394531 C 21.648438 37.195312 20.867188 41.980469 21.40625 46.777344 C 21.804688 50.324219 22.859375 54.027344 25.335938 56.652344 C 25.375 58.824219 25.542969 70.445312 24.578125 74.984375 L 45.011719 74.984375 C 45.011719 74.984375 43.125 60.992188 47.152344 56.367188 C 48.671875 55.582031 50.082031 54.582031 51.332031 53.390625 C 54.554688 50.328125 56.648438 46.289062 59.4375 42.855469 C 60.96875 40.964844 62.636719 39.1875 64.425781 37.539062 C 65.597656 36.457031 68 34.972656 67.40625 33.050781 Z M 67.40625 33.050781 " clip-rule="nonzero"/></clipPath><clipPath id="be8540b093"><path d="M 36.871094 18.613281 L 41.265625 18.613281 L 41.265625 19.554688 L 36.871094 19.554688 Z M 36.871094 18.613281 " clip-rule="nonzero"/></clipPath><clipPath id="23edc1bf08"><path d="M 67.40625 33.050781 C 66.957031 31.59375 65.082031 31.242188 63.769531 31.351562 C 61.753906 31.511719 59.738281 32.351562 58.109375 33.53125 C 57.25 34.148438 56.515625 34.890625 55.8125 35.679688 C 55.054688 36.527344 54.304688 37.433594 53.339844 38.0625 C 52.390625 38.679688 51.175781 39.074219 50.058594 38.714844 C 49.089844 38.398438 48.445312 37.574219 48.085938 36.65625 C 47.308594 34.675781 47.425781 32.328125 47.390625 30.242188 C 47.34375 27.667969 47.414062 25.089844 47.597656 22.523438 C 47.789062 19.898438 48.09375 17.28125 48.519531 14.683594 C 48.886719 12.464844 49.773438 9.878906 48.992188 7.660156 C 48.453125 6.132812 46.851562 4.710938 45.140625 5.214844 C 43.242188 5.777344 42.667969 7.925781 42.558594 9.664062 C 42.417969 11.9375 42.355469 14.195312 42.074219 16.460938 C 41.777344 18.851562 41.34375 21.230469 40.71875 23.558594 C 40.492188 24.40625 40.226562 25.246094 39.941406 26.078125 C 39.0625 22.394531 39.324219 18.539062 39.648438 14.800781 C 39.820312 12.804688 40.027344 10.8125 40.132812 8.816406 C 40.230469 6.992188 40.363281 5.03125 39.925781 3.246094 C 39.558594 1.757812 38.53125 0.296875 36.917969 0.046875 C 35.433594 -0.179688 34.222656 0.921875 33.71875 2.234375 C 33.035156 4.015625 33.484375 6.105469 33.585938 7.953125 C 33.695312 9.914062 33.738281 11.878906 33.730469 13.84375 C 33.71875 18.070312 33.492188 22.304688 32.988281 26.503906 C 31.84375 23.726562 31.808594 20.597656 31.871094 17.636719 C 31.933594 14.460938 32.238281 11.238281 31.804688 8.078125 C 31.648438 6.960938 31.285156 5.671875 30.355469 4.945312 C 29.378906 4.183594 28.113281 4.519531 27.378906 5.441406 C 26.371094 6.703125 26.59375 8.539062 26.605469 10.046875 C 26.617188 12.039062 26.632812 14.035156 26.644531 16.027344 C 26.675781 20.039062 26.703125 24.046875 26.730469 28.058594 C 26.265625 25.953125 25.804688 23.847656 25.34375 21.742188 C 25.054688 20.425781 24.765625 19.109375 24.476562 17.792969 C 24.210938 16.585938 24.003906 15.339844 23.65625 14.152344 C 23.28125 12.871094 22.128906 11.1875 20.617188 12.207031 C 19.058594 13.257812 19.148438 15.785156 19.292969 17.402344 C 19.511719 19.832031 20.28125 22.167969 20.875 24.519531 C 21.527344 27.113281 21.785156 29.722656 21.734375 32.394531 C 21.648438 37.195312 20.867188 41.980469 21.40625 46.777344 C 21.804688 50.324219 22.859375 54.027344 25.335938 56.652344 C 25.375 58.824219 25.542969 70.445312 24.578125 74.984375 L 45.011719 74.984375 C 45.011719 74.984375 43.125 60.992188 47.152344 56.367188 C 48.671875 55.582031 50.082031 54.582031 51.332031 53.390625 C 54.554688 50.328125 56.648438 46.289062 59.4375 42.855469 C 60.96875 40.964844 62.636719 39.1875 64.425781 37.539062 C 65.597656 36.457031 68 34.972656 67.40625 33.050781 Z M 67.40625 33.050781 " clip-rule="nonzero"/></clipPath><clipPath id="62a6931b92"><path d="M 37.105469 11.082031 L 41.5 11.082031 L 41.5 12.101562 L 37.105469 12.101562 Z M 37.105469 11.082031 " clip-rule="nonzero"/></clipPath><clipPath id="b22ada4733"><path d="M 67.40625 33.050781 C 66.957031 31.59375 65.082031 31.242188 63.769531 31.351562 C 61.753906 31.511719 59.738281 32.351562 58.109375 33.53125 C 57.25 34.148438 56.515625 34.890625 55.8125 35.679688 C 55.054688 36.527344 54.304688 37.433594 53.339844 38.0625 C 52.390625 38.679688 51.175781 39.074219 50.058594 38.714844 C 49.089844 38.398438 48.445312 37.574219 48.085938 36.65625 C 47.308594 34.675781 47.425781 32.328125 47.390625 30.242188 C 47.34375 27.667969 47.414062 25.089844 47.597656 22.523438 C 47.789062 19.898438 48.09375 17.28125 48.519531 14.683594 C 48.886719 12.464844 49.773438 9.878906 48.992188 7.660156 C 48.453125 6.132812 46.851562 4.710938 45.140625 5.214844 C 43.242188 5.777344 42.667969 7.925781 42.558594 9.664062 C 42.417969 11.9375 42.355469 14.195312 42.074219 16.460938 C 41.777344 18.851562 41.34375 21.230469 40.71875 23.558594 C 40.492188 24.40625 40.226562 25.246094 39.941406 26.078125 C 39.0625 22.394531 39.324219 18.539062 39.648438 14.800781 C 39.820312 12.804688 40.027344 10.8125 40.132812 8.816406 C 40.230469 6.992188 40.363281 5.03125 39.925781 3.246094 C 39.558594 1.757812 38.53125 0.296875 36.917969 0.046875 C 35.433594 -0.179688 34.222656 0.921875 33.71875 2.234375 C 33.035156 4.015625 33.484375 6.105469 33.585938 7.953125 C 33.695312 9.914062 33.738281 11.878906 33.730469 13.84375 C 33.71875 18.070312 33.492188 22.304688 32.988281 26.503906 C 31.84375 23.726562 31.808594 20.597656 31.871094 17.636719 C 31.933594 14.460938 32.238281 11.238281 31.804688 8.078125 C 31.648438 6.960938 31.285156 5.671875 30.355469 4.945312 C 29.378906 4.183594 28.113281 4.519531 27.378906 5.441406 C 26.371094 6.703125 26.59375 8.539062 26.605469 10.046875 C 26.617188 12.039062 26.632812 14.035156 26.644531 16.027344 C 26.675781 20.039062 26.703125 24.046875 26.730469 28.058594 C 26.265625 25.953125 25.804688 23.847656 25.34375 21.742188 C 25.054688 20.425781 24.765625 19.109375 24.476562 17.792969 C 24.210938 16.585938 24.003906 15.339844 23.65625 14.152344 C 23.28125 12.871094 22.128906 11.1875 20.617188 12.207031 C 19.058594 13.257812 19.148438 15.785156 19.292969 17.402344 C 19.511719 19.832031 20.28125 22.167969 20.875 24.519531 C 21.527344 27.113281 21.785156 29.722656 21.734375 32.394531 C 21.648438 37.195312 20.867188 41.980469 21.40625 46.777344 C 21.804688 50.324219 22.859375 54.027344 25.335938 56.652344 C 25.375 58.824219 25.542969 70.445312 24.578125 74.984375 L 45.011719 74.984375 C 45.011719 74.984375 43.125 60.992188 47.152344 56.367188 C 48.671875 55.582031 50.082031 54.582031 51.332031 53.390625 C 54.554688 50.328125 56.648438 46.289062 59.4375 42.855469 C 60.96875 40.964844 62.636719 39.1875 64.425781 37.539062 C 65.597656 36.457031 68 34.972656 67.40625 33.050781 Z M 67.40625 33.050781 " clip-rule="nonzero"/></clipPath><clipPath id="dff6e82d4e"><path d="M 28.867188 19.082031 L 33.261719 19.082031 L 33.261719 20.101562 L 28.867188 20.101562 Z M 28.867188 19.082031 " clip-rule="nonzero"/></clipPath><clipPath id="ecb6887f22"><path d="M 67.40625 33.050781 C 66.957031 31.59375 65.082031 31.242188 63.769531 31.351562 C 61.753906 31.511719 59.738281 32.351562 58.109375 33.53125 C 57.25 34.148438 56.515625 34.890625 55.8125 35.679688 C 55.054688 36.527344 54.304688 37.433594 53.339844 38.0625 C 52.390625 38.679688 51.175781 39.074219 50.058594 38.714844 C 49.089844 38.398438 48.445312 37.574219 48.085938 36.65625 C 47.308594 34.675781 47.425781 32.328125 47.390625 30.242188 C 47.34375 27.667969 47.414062 25.089844 47.597656 22.523438 C 47.789062 19.898438 48.09375 17.28125 48.519531 14.683594 C 48.886719 12.464844 49.773438 9.878906 48.992188 7.660156 C 48.453125 6.132812 46.851562 4.710938 45.140625 5.214844 C 43.242188 5.777344 42.667969 7.925781 42.558594 9.664062 C 42.417969 11.9375 42.355469 14.195312 42.074219 16.460938 C 41.777344 18.851562 41.34375 21.230469 40.71875 23.558594 C 40.492188 24.40625 40.226562 25.246094 39.941406 26.078125 C 39.0625 22.394531 39.324219 18.539062 39.648438 14.800781 C 39.820312 12.804688 40.027344 10.8125 40.132812 8.816406 C 40.230469 6.992188 40.363281 5.03125 39.925781 3.246094 C 39.558594 1.757812 38.53125 0.296875 36.917969 0.046875 C 35.433594 -0.179688 34.222656 0.921875 33.71875 2.234375 C 33.035156 4.015625 33.484375 6.105469 33.585938 7.953125 C 33.695312 9.914062 33.738281 11.878906 33.730469 13.84375 C 33.71875 18.070312 33.492188 22.304688 32.988281 26.503906 C 31.84375 23.726562 31.808594 20.597656 31.871094 17.636719 C 31.933594 14.460938 32.238281 11.238281 31.804688 8.078125 C 31.648438 6.960938 31.285156 5.671875 30.355469 4.945312 C 29.378906 4.183594 28.113281 4.519531 27.378906 5.441406 C 26.371094 6.703125 26.59375 8.539062 26.605469 10.046875 C 26.617188 12.039062 26.632812 14.035156 26.644531 16.027344 C 26.675781 20.039062 26.703125 24.046875 26.730469 28.058594 C 26.265625 25.953125 25.804688 23.847656 25.34375 21.742188 C 25.054688 20.425781 24.765625 19.109375 24.476562 17.792969 C 24.210938 16.585938 24.003906 15.339844 23.65625 14.152344 C 23.28125 12.871094 22.128906 11.1875 20.617188 12.207031 C 19.058594 13.257812 19.148438 15.785156 19.292969 17.402344 C 19.511719 19.832031 20.28125 22.167969 20.875 24.519531 C 21.527344 27.113281 21.785156 29.722656 21.734375 32.394531 C 21.648438 37.195312 20.867188 41.980469 21.40625 46.777344 C 21.804688 50.324219 22.859375 54.027344 25.335938 56.652344 C 25.375 58.824219 25.542969 70.445312 24.578125 74.984375 L 45.011719 74.984375 C 45.011719 74.984375 43.125 60.992188 47.152344 56.367188 C 48.671875 55.582031 50.082031 54.582031 51.332031 53.390625 C 54.554688 50.328125 56.648438 46.289062 59.4375 42.855469 C 60.96875 40.964844 62.636719 39.1875 64.425781 37.539062 C 65.597656 36.457031 68 34.972656 67.40625 33.050781 Z M 67.40625 33.050781 " clip-rule="nonzero"/></clipPath><clipPath id="4b263f0b71"><path d="M 29.417969 11.550781 L 33.734375 11.550781 L 33.734375 12.570312 L 29.417969 12.570312 Z M 29.417969 11.550781 " clip-rule="nonzero"/></clipPath><clipPath id="9df8c7d9a2"><path d="M 67.40625 33.050781 C 66.957031 31.59375 65.082031 31.242188 63.769531 31.351562 C 61.753906 31.511719 59.738281 32.351562 58.109375 33.53125 C 57.25 34.148438 56.515625 34.890625 55.8125 35.679688 C 55.054688 36.527344 54.304688 37.433594 53.339844 38.0625 C 52.390625 38.679688 51.175781 39.074219 50.058594 38.714844 C 49.089844 38.398438 48.445312 37.574219 48.085938 36.65625 C 47.308594 34.675781 47.425781 32.328125 47.390625 30.242188 C 47.34375 27.667969 47.414062 25.089844 47.597656 22.523438 C 47.789062 19.898438 48.09375 17.28125 48.519531 14.683594 C 48.886719 12.464844 49.773438 9.878906 48.992188 7.660156 C 48.453125 6.132812 46.851562 4.710938 45.140625 5.214844 C 43.242188 5.777344 42.667969 7.925781 42.558594 9.664062 C 42.417969 11.9375 42.355469 14.195312 42.074219 16.460938 C 41.777344 18.851562 41.34375 21.230469 40.71875 23.558594 C 40.492188 24.40625 40.226562 25.246094 39.941406 26.078125 C 39.0625 22.394531 39.324219 18.539062 39.648438 14.800781 C 39.820312 12.804688 40.027344 10.8125 40.132812 8.816406 C 40.230469 6.992188 40.363281 5.03125 39.925781 3.246094 C 39.558594 1.757812 38.53125 0.296875 36.917969 0.046875 C 35.433594 -0.179688 34.222656 0.921875 33.71875 2.234375 C 33.035156 4.015625 33.484375 6.105469 33.585938 7.953125 C 33.695312 9.914062 33.738281 11.878906 33.730469 13.84375 C 33.71875 18.070312 33.492188 22.304688 32.988281 26.503906 C 31.84375 23.726562 31.808594 20.597656 31.871094 17.636719 C 31.933594 14.460938 32.238281 11.238281 31.804688 8.078125 C 31.648438 6.960938 31.285156 5.671875 30.355469 4.945312 C 29.378906 4.183594 28.113281 4.519531 27.378906 5.441406 C 26.371094 6.703125 26.59375 8.539062 26.605469 10.046875 C 26.617188 12.039062 26.632812 14.035156 26.644531 16.027344 C 26.675781 20.039062 26.703125 24.046875 26.730469 28.058594 C 26.265625 25.953125 25.804688 23.847656 25.34375 21.742188 C 25.054688 20.425781 24.765625 19.109375 24.476562 17.792969 C 24.210938 16.585938 24.003906 15.339844 23.65625 14.152344 C 23.28125 12.871094 22.128906 11.1875 20.617188 12.207031 C 19.058594 13.257812 19.148438 15.785156 19.292969 17.402344 C 19.511719 19.832031 20.28125 22.167969 20.875 24.519531 C 21.527344 27.113281 21.785156 29.722656 21.734375 32.394531 C 21.648438 37.195312 20.867188 41.980469 21.40625 46.777344 C 21.804688 50.324219 22.859375 54.027344 25.335938 56.652344 C 25.375 58.824219 25.542969 70.445312 24.578125 74.984375 L 45.011719 74.984375 C 45.011719 74.984375 43.125 60.992188 47.152344 56.367188 C 48.671875 55.582031 50.082031 54.582031 51.332031 53.390625 C 54.554688 50.328125 56.648438 46.289062 59.4375 42.855469 C 60.96875 40.964844 62.636719 39.1875 64.425781 37.539062 C 65.597656 36.457031 68 34.972656 67.40625 33.050781 Z M 67.40625 33.050781 " clip-rule="nonzero"/></clipPath><clipPath id="a494524e0e"><path d="M 21.886719 15.628906 L 26.121094 15.628906 L 26.121094 17.121094 L 21.886719 17.121094 Z M 21.886719 15.628906 " clip-rule="nonzero"/></clipPath><clipPath id="3bd39f63da"><path d="M 67.40625 33.050781 C 66.957031 31.59375 65.082031 31.242188 63.769531 31.351562 C 61.753906 31.511719 59.738281 32.351562 58.109375 33.53125 C 57.25 34.148438 56.515625 34.890625 55.8125 35.679688 C 55.054688 36.527344 54.304688 37.433594 53.339844 38.0625 C 52.390625 38.679688 51.175781 39.074219 50.058594 38.714844 C 49.089844 38.398438 48.445312 37.574219 48.085938 36.65625 C 47.308594 34.675781 47.425781 32.328125 47.390625 30.242188 C 47.34375 27.667969 47.414062 25.089844 47.597656 22.523438 C 47.789062 19.898438 48.09375 17.28125 48.519531 14.683594 C 48.886719 12.464844 49.773438 9.878906 48.992188 7.660156 C 48.453125 6.132812 46.851562 4.710938 45.140625 5.214844 C 43.242188 5.777344 42.667969 7.925781 42.558594 9.664062 C 42.417969 11.9375 42.355469 14.195312 42.074219 16.460938 C 41.777344 18.851562 41.34375 21.230469 40.71875 23.558594 C 40.492188 24.40625 40.226562 25.246094 39.941406 26.078125 C 39.0625 22.394531 39.324219 18.539062 39.648438 14.800781 C 39.820312 12.804688 40.027344 10.8125 40.132812 8.816406 C 40.230469 6.992188 40.363281 5.03125 39.925781 3.246094 C 39.558594 1.757812 38.53125 0.296875 36.917969 0.046875 C 35.433594 -0.179688 34.222656 0.921875 33.71875 2.234375 C 33.035156 4.015625 33.484375 6.105469 33.585938 7.953125 C 33.695312 9.914062 33.738281 11.878906 33.730469 13.84375 C 33.71875 18.070312 33.492188 22.304688 32.988281 26.503906 C 31.84375 23.726562 31.808594 20.597656 31.871094 17.636719 C 31.933594 14.460938 32.238281 11.238281 31.804688 8.078125 C 31.648438 6.960938 31.285156 5.671875 30.355469 4.945312 C 29.378906 4.183594 28.113281 4.519531 27.378906 5.441406 C 26.371094 6.703125 26.59375 8.539062 26.605469 10.046875 C 26.617188 12.039062 26.632812 14.035156 26.644531 16.027344 C 26.675781 20.039062 26.703125 24.046875 26.730469 28.058594 C 26.265625 25.953125 25.804688 23.847656 25.34375 21.742188 C 25.054688 20.425781 24.765625 19.109375 24.476562 17.792969 C 24.210938 16.585938 24.003906 15.339844 23.65625 14.152344 C 23.28125 12.871094 22.128906 11.1875 20.617188 12.207031 C 19.058594 13.257812 19.148438 15.785156 19.292969 17.402344 C 19.511719 19.832031 20.28125 22.167969 20.875 24.519531 C 21.527344 27.113281 21.785156 29.722656 21.734375 32.394531 C 21.648438 37.195312 20.867188 41.980469 21.40625 46.777344 C 21.804688 50.324219 22.859375 54.027344 25.335938 56.652344 C 25.375 58.824219 25.542969 70.445312 24.578125 74.984375 L 45.011719 74.984375 C 45.011719 74.984375 43.125 60.992188 47.152344 56.367188 C 48.671875 55.582031 50.082031 54.582031 51.332031 53.390625 C 54.554688 50.328125 56.648438 46.289062 59.4375 42.855469 C 60.96875 40.964844 62.636719 39.1875 64.425781 37.539062 C 65.597656 36.457031 68 34.972656 67.40625 33.050781 Z M 67.40625 33.050781 " clip-rule="nonzero"/></clipPath><clipPath id="38e07b830c"><path d="M 22.355469 20.339844 L 26.59375 20.339844 L 26.59375 21.90625 L 22.355469 21.90625 Z M 22.355469 20.339844 " clip-rule="nonzero"/></clipPath><clipPath id="6ea431c258"><path d="M 67.40625 33.050781 C 66.957031 31.59375 65.082031 31.242188 63.769531 31.351562 C 61.753906 31.511719 59.738281 32.351562 58.109375 33.53125 C 57.25 34.148438 56.515625 34.890625 55.8125 35.679688 C 55.054688 36.527344 54.304688 37.433594 53.339844 38.0625 C 52.390625 38.679688 51.175781 39.074219 50.058594 38.714844 C 49.089844 38.398438 48.445312 37.574219 48.085938 36.65625 C 47.308594 34.675781 47.425781 32.328125 47.390625 30.242188 C 47.34375 27.667969 47.414062 25.089844 47.597656 22.523438 C 47.789062 19.898438 48.09375 17.28125 48.519531 14.683594 C 48.886719 12.464844 49.773438 9.878906 48.992188 7.660156 C 48.453125 6.132812 46.851562 4.710938 45.140625 5.214844 C 43.242188 5.777344 42.667969 7.925781 42.558594 9.664062 C 42.417969 11.9375 42.355469 14.195312 42.074219 16.460938 C 41.777344 18.851562 41.34375 21.230469 40.71875 23.558594 C 40.492188 24.40625 40.226562 25.246094 39.941406 26.078125 C 39.0625 22.394531 39.324219 18.539062 39.648438 14.800781 C 39.820312 12.804688 40.027344 10.8125 40.132812 8.816406 C 40.230469 6.992188 40.363281 5.03125 39.925781 3.246094 C 39.558594 1.757812 38.53125 0.296875 36.917969 0.046875 C 35.433594 -0.179688 34.222656 0.921875 33.71875 2.234375 C 33.035156 4.015625 33.484375 6.105469 33.585938 7.953125 C 33.695312 9.914062 33.738281 11.878906 33.730469 13.84375 C 33.71875 18.070312 33.492188 22.304688 32.988281 26.503906 C 31.84375 23.726562 31.808594 20.597656 31.871094 17.636719 C 31.933594 14.460938 32.238281 11.238281 31.804688 8.078125 C 31.648438 6.960938 31.285156 5.671875 30.355469 4.945312 C 29.378906 4.183594 28.113281 4.519531 27.378906 5.441406 C 26.371094 6.703125 26.59375 8.539062 26.605469 10.046875 C 26.617188 12.039062 26.632812 14.035156 26.644531 16.027344 C 26.675781 20.039062 26.703125 24.046875 26.730469 28.058594 C 26.265625 25.953125 25.804688 23.847656 25.34375 21.742188 C 25.054688 20.425781 24.765625 19.109375 24.476562 17.792969 C 24.210938 16.585938 24.003906 15.339844 23.65625 14.152344 C 23.28125 12.871094 22.128906 11.1875 20.617188 12.207031 C 19.058594 13.257812 19.148438 15.785156 19.292969 17.402344 C 19.511719 19.832031 20.28125 22.167969 20.875 24.519531 C 21.527344 27.113281 21.785156 29.722656 21.734375 32.394531 C 21.648438 37.195312 20.867188 41.980469 21.40625 46.777344 C 21.804688 50.324219 22.859375 54.027344 25.335938 56.652344 C 25.375 58.824219 25.542969 70.445312 24.578125 74.984375 L 45.011719 74.984375 C 45.011719 74.984375 43.125 60.992188 47.152344 56.367188 C 48.671875 55.582031 50.082031 54.582031 51.332031 53.390625 C 54.554688 50.328125 56.648438 46.289062 59.4375 42.855469 C 60.96875 40.964844 62.636719 39.1875 64.425781 37.539062 C 65.597656 36.457031 68 34.972656 67.40625 33.050781 Z M 67.40625 33.050781 " clip-rule="nonzero"/></clipPath></defs><g clip-path="url(#100c995523)"><path fill="#ffc4b0" d="M 67.40625 33.050781 C 66.957031 31.59375 65.082031 31.242188 63.769531 31.351562 C 61.753906 31.511719 59.738281 32.351562 58.109375 33.53125 C 57.25 34.148438 56.515625 34.890625 55.8125 35.679688 C 55.054688 36.527344 54.304688 37.433594 53.339844 38.0625 C 52.390625 38.679688 51.175781 39.074219 50.058594 38.714844 C 49.089844 38.398438 48.445312 37.574219 48.085938 36.65625 C 47.308594 34.675781 47.425781 32.328125 47.390625 30.242188 C 47.34375 27.667969 47.414062 25.089844 47.597656 22.523438 C 47.789062 19.898438 48.09375 17.28125 48.519531 14.683594 C 48.886719 12.464844 49.773438 9.878906 48.992188 7.660156 C 48.453125 6.132812 46.851562 4.710938 45.140625 5.214844 C 43.242188 5.777344 42.667969 7.925781 42.558594 9.664062 C 42.417969 11.9375 42.355469 14.195312 42.074219 16.460938 C 41.777344 18.851562 41.34375 21.230469 40.71875 23.558594 C 40.492188 24.40625 40.226562 25.246094 39.941406 26.078125 C 39.0625 22.394531 39.324219 18.539062 39.648438 14.800781 C 39.820312 12.804688 40.027344 10.8125 40.132812 8.816406 C 40.230469 6.992188 40.363281 5.03125 39.925781 3.246094 C 39.558594 1.757812 38.53125 0.296875 36.917969 0.046875 C 35.433594 -0.179688 34.222656 0.921875 33.71875 2.234375 C 33.035156 4.015625 33.484375 6.105469 33.585938 7.953125 C 33.695312 9.914062 33.738281 11.878906 33.730469 13.84375 C 33.71875 18.070312 33.492188 22.304688 32.988281 26.503906 C 31.84375 23.726562 31.808594 20.597656 31.871094 17.636719 C 31.933594 14.460938 32.238281 11.238281 31.804688 8.078125 C 31.648438 6.960938 31.285156 5.671875 30.355469 4.945312 C 29.378906 4.183594 28.113281 4.519531 27.378906 5.441406 C 26.371094 6.703125 26.59375 8.539062 26.605469 10.046875 C 26.617188 12.039062 26.632812 14.035156 26.644531 16.027344 C 26.675781 20.039062 26.703125 24.046875 26.730469 28.058594 C 26.265625 25.953125 25.804688 23.847656 25.34375 21.742188 C 25.054688 20.425781 24.765625 19.109375 24.476562 17.792969 C 24.210938 16.585938 24.003906 15.339844 23.65625 14.152344 C 23.28125 12.871094 22.128906 11.1875 20.617188 12.207031 C 19.058594 13.257812 19.148438 15.785156 19.292969 17.402344 C 19.511719 19.832031 20.28125 22.164062 20.875 24.519531 C 21.527344 27.113281 21.785156 29.722656 21.734375 32.394531 C 21.648438 37.195312 20.867188 41.980469 21.40625 46.777344 C 21.804688 50.324219 22.859375 54.027344 25.335938 56.652344 C 25.375 58.824219 25.542969 70.445312 24.578125 74.984375 L 45.011719 74.984375 C 45.011719 74.984375 43.125 60.992188 47.152344 56.367188 C 48.671875 55.582031 50.082031 54.582031 51.332031 53.390625 C 54.554688 50.328125 56.648438 46.289062 59.4375 42.855469 C 60.96875 40.964844 62.636719 39.1875 64.425781 37.539062 C 65.597656 36.457031 68 34.972656 67.40625 33.050781 " fill-opacity="1" fill-rule="nonzero"/></g><g clip-path="url(#dbf847308a)"><g clip-path="url(#f7d75cdfaf)"><path fill="#feb6a1" d="M 47.273438 56.800781 C 43.464844 57.992188 38.878906 57.792969 36.105469 54.5625 C 36.050781 54.5 35.957031 54.457031 35.878906 54.515625 C 32.707031 57.023438 28.339844 57.773438 24.515625 56.457031 C 24.429688 56.386719 24.34375 56.320312 24.261719 56.246094 C 24.105469 56.109375 23.886719 56.347656 24.042969 56.488281 C 24.058594 56.5 24.070312 56.511719 24.085938 56.523438 C 24.070312 56.585938 24.089844 56.648438 24.171875 56.679688 C 24.226562 56.699219 24.285156 56.714844 24.339844 56.734375 C 26.863281 58.808594 30.34375 59.414062 33.40625 58.203125 C 33.785156 58.054688 34.152344 57.878906 34.507812 57.683594 C 34.8125 57.515625 35.3125 57.019531 35.636719 57.148438 C 36.023438 57.304688 36.398438 57.617188 36.761719 57.816406 C 37.199219 58.058594 37.648438 58.28125 38.105469 58.476562 C 39.628906 59.136719 41.300781 59.527344 42.96875 59.351562 C 44.691406 59.171875 46.339844 58.421875 47.445312 57.0625 C 47.546875 56.941406 47.433594 56.753906 47.273438 56.800781 " fill-opacity="1" fill-rule="nonzero"/></g></g><g clip-path="url(#60837f2cc4)"><g clip-path="url(#9b36838a0c)"><path fill="#feb6a1" d="M 24.292969 27.574219 C 22.914062 27.734375 21.503906 27.890625 20.140625 27.554688 C 19.921875 27.5 19.824219 27.839844 20.046875 27.894531 C 20.101562 27.910156 20.152344 27.917969 20.207031 27.929688 C 20.179688 27.976562 20.171875 28.035156 20.195312 28.09375 C 20.605469 29.085938 20.84375 30.148438 20.910156 31.21875 C 20.917969 31.363281 21.097656 31.464844 21.210938 31.347656 C 22.277344 30.191406 23.347656 29.035156 24.414062 27.878906 C 24.507812 27.777344 24.457031 27.554688 24.292969 27.574219 " fill-opacity="1" fill-rule="nonzero"/></g></g><g clip-path="url(#c013af6513)"><g clip-path="url(#f7c120d3e0)"><path fill="#feb6a1" d="M 54.425781 39.871094 C 54.1875 38.722656 54.191406 37.535156 54.441406 36.390625 C 54.476562 36.234375 54.335938 36.125 54.191406 36.1875 C 52.929688 36.714844 51.667969 37.242188 50.40625 37.769531 C 50.308594 37.8125 50.296875 37.902344 50.332031 37.976562 C 50.183594 38.019531 50.136719 38.261719 50.320312 38.304688 C 51.703125 38.644531 53.003906 39.234375 54.164062 40.058594 C 54.292969 40.148438 54.457031 40.011719 54.425781 39.871094 " fill-opacity="1" fill-rule="nonzero"/></g></g><g clip-path="url(#908e692693)"><g clip-path="url(#a541424d85)"><path fill="#feb6a1" d="M 65.457031 36.613281 C 65.492188 36.570312 65.511719 36.480469 65.566406 36.488281 C 66.363281 36.625 67.441406 36.757812 66.25 36.433594 C 66.207031 36.421875 66.027344 36.902344 66 36.933594 C 65.902344 36.9375 65.734375 36.324219 65.75 36.433594 C 63.539062 38.84375 59.617188 40.257812 56.34375 40.050781 C 56.195312 40.039062 56.105469 40.25 56.21875 40.347656 C 57.554688 41.523438 56.894531 43.480469 55.933594 44.65625 C 54.957031 45.851562 53.75 46.804688 52.847656 48.070312 C 50.992188 50.664062 50.027344 53.761719 49.097656 56.777344 C 49.046875 56.945312 49.269531 57.066406 49.390625 56.945312 C 50.839844 55.53125 52.390625 54.226562 54.050781 53.066406 C 55.65625 51.9375 57.355469 51.023438 59.074219 50.085938 C 60.566406 49.269531 61.574219 48.257812 61.851562 46.53125 C 62.007812 45.574219 62.039062 44.59375 62.453125 43.703125 C 62.875 42.800781 63.542969 42.046875 64.152344 41.273438 C 65.175781 39.976562 66.152344 38.261719 65.457031 36.613281 " fill-opacity="1" fill-rule="nonzero"/></g></g><g clip-path="url(#274c98d9df)"><g clip-path="url(#46d5144097)"><path fill="#feb6a1" d="M 49.703125 13.660156 C 49.527344 13.664062 49.355469 13.660156 49.183594 13.644531 C 48.839844 13.625 48.503906 13.582031 48.164062 13.523438 C 47.820312 13.472656 47.476562 13.398438 47.117188 13.34375 C 46.941406 13.308594 46.757812 13.285156 46.574219 13.261719 C 46.386719 13.238281 46.199219 13.210938 45.992188 13.210938 C 46.128906 13.363281 46.28125 13.480469 46.433594 13.605469 C 46.59375 13.714844 46.761719 13.8125 46.933594 13.90625 C 47.28125 14.074219 47.652344 14.207031 48.046875 14.261719 C 48.433594 14.328125 48.84375 14.324219 49.242188 14.230469 C 49.4375 14.183594 49.632812 14.113281 49.808594 14.011719 C 49.984375 13.90625 50.15625 13.78125 50.257812 13.601562 C 50.0625 13.640625 49.886719 13.660156 49.703125 13.660156 " fill-opacity="1" fill-rule="nonzero"/></g></g><g clip-path="url(#6f1f17adfd)"><g clip-path="url(#9734054a76)"><path fill="#feb6a1" d="M 49.203125 20.417969 C 49.027344 20.421875 48.851562 20.417969 48.683594 20.40625 C 48.339844 20.382812 48.003906 20.339844 47.660156 20.28125 C 47.320312 20.230469 46.976562 20.160156 46.617188 20.105469 C 46.441406 20.070312 46.257812 20.042969 46.070312 20.019531 C 45.886719 19.996094 45.699219 19.96875 45.492188 19.972656 C 45.628906 20.121094 45.78125 20.238281 45.933594 20.363281 C 46.09375 20.476562 46.261719 20.570312 46.429688 20.664062 C 46.78125 20.832031 47.152344 20.964844 47.542969 21.023438 C 47.933594 21.085938 48.34375 21.085938 48.738281 20.992188 C 48.9375 20.941406 49.132812 20.871094 49.308594 20.769531 C 49.484375 20.664062 49.65625 20.539062 49.757812 20.359375 C 49.5625 20.398438 49.382812 20.417969 49.203125 20.417969 " fill-opacity="1" fill-rule="nonzero"/></g></g><g clip-path="url(#be8540b093)"><g clip-path="url(#23edc1bf08)"><path fill="#feb6a1" d="M 40.671875 18.742188 C 40.496094 18.765625 40.324219 18.78125 40.152344 18.789062 C 39.808594 18.804688 39.46875 18.796875 39.125 18.777344 C 38.777344 18.761719 38.429688 18.730469 38.066406 18.714844 C 37.886719 18.699219 37.703125 18.691406 37.515625 18.691406 C 37.328125 18.6875 37.136719 18.679688 36.933594 18.703125 C 37.085938 18.839844 37.25 18.941406 37.417969 19.046875 C 37.585938 19.140625 37.765625 19.21875 37.945312 19.292969 C 38.308594 19.421875 38.691406 19.511719 39.089844 19.527344 C 39.484375 19.546875 39.890625 19.5 40.273438 19.363281 C 40.464844 19.292969 40.652344 19.203125 40.816406 19.082031 C 40.976562 18.960938 41.132812 18.816406 41.21875 18.628906 C 41.027344 18.6875 40.851562 18.726562 40.671875 18.742188 " fill-opacity="1" fill-rule="nonzero"/></g></g><g clip-path="url(#62a6931b92)"><g clip-path="url(#b22ada4733)"><path fill="#feb6a1" d="M 40.921875 11.234375 C 40.746094 11.257812 40.574219 11.273438 40.402344 11.277344 C 40.058594 11.292969 39.71875 11.289062 39.375 11.265625 C 39.03125 11.253906 38.679688 11.21875 38.316406 11.207031 C 38.136719 11.1875 37.953125 11.183594 37.765625 11.179688 C 37.578125 11.175781 37.386719 11.171875 37.183594 11.195312 C 37.335938 11.328125 37.5 11.429688 37.667969 11.535156 C 37.835938 11.632812 38.015625 11.707031 38.195312 11.78125 C 38.558594 11.910156 38.941406 12.003906 39.339844 12.015625 C 39.734375 12.039062 40.140625 11.992188 40.523438 11.855469 C 40.714844 11.785156 40.902344 11.695312 41.066406 11.570312 C 41.226562 11.449219 41.382812 11.304688 41.46875 11.117188 C 41.277344 11.179688 41.101562 11.214844 40.921875 11.234375 " fill-opacity="1" fill-rule="nonzero"/></g></g><g clip-path="url(#dff6e82d4e)"><g clip-path="url(#ecb6887f22)"><path fill="#feb6a1" d="M 32.664062 19.246094 C 32.484375 19.269531 32.3125 19.28125 32.140625 19.289062 C 31.800781 19.304688 31.460938 19.296875 31.113281 19.277344 C 30.769531 19.265625 30.417969 19.230469 30.058594 19.214844 C 29.878906 19.199219 29.695312 19.195312 29.503906 19.191406 C 29.316406 19.1875 29.128906 19.179688 28.925781 19.207031 C 29.074219 19.339844 29.238281 19.441406 29.40625 19.546875 C 29.574219 19.640625 29.753906 19.71875 29.933594 19.792969 C 30.296875 19.921875 30.683594 20.011719 31.078125 20.027344 C 31.472656 20.050781 31.878906 20 32.265625 19.863281 C 32.457031 19.792969 32.640625 19.703125 32.804688 19.582031 C 32.96875 19.460938 33.125 19.316406 33.207031 19.128906 C 33.015625 19.1875 32.84375 19.226562 32.664062 19.246094 " fill-opacity="1" fill-rule="nonzero"/></g></g><g clip-path="url(#4b263f0b71)"><g clip-path="url(#9df8c7d9a2)"><path fill="#feb6a1" d="M 33.164062 11.734375 C 32.988281 11.757812 32.816406 11.773438 32.644531 11.78125 C 32.300781 11.792969 31.960938 11.789062 31.613281 11.765625 C 31.269531 11.753906 30.917969 11.722656 30.558594 11.707031 C 30.378906 11.691406 30.195312 11.683594 30.007812 11.683594 C 29.816406 11.679688 29.628906 11.671875 29.425781 11.695312 C 29.574219 11.828125 29.742188 11.933594 29.90625 12.035156 C 30.078125 12.132812 30.253906 12.207031 30.433594 12.28125 C 30.800781 12.410156 31.183594 12.503906 31.578125 12.515625 C 31.972656 12.539062 32.382812 12.492188 32.765625 12.355469 C 32.957031 12.285156 33.140625 12.195312 33.304688 12.074219 C 33.46875 11.949219 33.625 11.804688 33.710938 11.617188 C 33.515625 11.679688 33.34375 11.714844 33.164062 11.734375 " fill-opacity="1" fill-rule="nonzero"/></g></g><g clip-path="url(#a494524e0e)"><g clip-path="url(#3bd39f63da)"><path fill="#feb6a1" d="M 25.542969 15.875 C 25.378906 15.941406 25.214844 15.996094 25.046875 16.042969 C 24.71875 16.140625 24.386719 16.214844 24.046875 16.277344 C 23.710938 16.347656 23.363281 16.398438 23.007812 16.472656 C 22.828125 16.5 22.648438 16.539062 22.464844 16.582031 C 22.28125 16.621094 22.097656 16.660156 21.90625 16.734375 C 22.082031 16.828125 22.265625 16.886719 22.453125 16.949219 C 22.640625 17 22.832031 17.03125 23.023438 17.0625 C 23.410156 17.097656 23.804688 17.09375 24.191406 17.015625 C 24.582031 16.941406 24.964844 16.796875 25.304688 16.574219 C 25.472656 16.460938 25.632812 16.328125 25.761719 16.167969 C 25.890625 16.011719 26.007812 15.835938 26.042969 15.632812 C 25.871094 15.734375 25.710938 15.8125 25.542969 15.875 " fill-opacity="1" fill-rule="nonzero"/></g></g><g clip-path="url(#38e07b830c)"><g clip-path="url(#6ea431c258)"><path fill="#feb6a1" d="M 26.042969 20.632812 C 25.878906 20.695312 25.714844 20.75 25.550781 20.800781 C 25.21875 20.894531 24.890625 20.972656 24.546875 21.035156 C 24.210938 21.105469 23.863281 21.15625 23.507812 21.226562 C 23.328125 21.253906 23.148438 21.292969 22.964844 21.335938 C 22.78125 21.378906 22.597656 21.417969 22.40625 21.488281 C 22.582031 21.582031 22.769531 21.644531 22.953125 21.707031 C 23.140625 21.757812 23.332031 21.789062 23.523438 21.816406 C 23.910156 21.855469 24.304688 21.851562 24.695312 21.769531 C 25.082031 21.699219 25.464844 21.554688 25.804688 21.328125 C 25.972656 21.214844 26.132812 21.082031 26.261719 20.925781 C 26.390625 20.765625 26.507812 20.589844 26.546875 20.386719 C 26.375 20.492188 26.214844 20.570312 26.042969 20.632812 " fill-opacity="1" fill-rule="nonzero"/></g></g><path fill="#feb6a1" d="M 44.433594 39.101562 C 44.371094 38.582031 44.023438 38.21875 43.765625 37.789062 C 43.527344 37.386719 43.519531 36.972656 43.648438 36.53125 C 43.773438 36.097656 43.980469 35.691406 44.132812 35.265625 C 44.28125 34.855469 44.371094 34.414062 44.269531 33.984375 C 44.175781 33.585938 43.941406 33.214844 43.585938 33.011719 C 43.234375 32.808594 42.8125 32.78125 42.417969 32.835938 C 42.058594 32.886719 41.707031 32.992188 41.339844 32.917969 C 41.296875 32.90625 41.257812 32.894531 41.21875 32.882812 L 40.71875 32.484375 C 40.667969 32.402344 40.625 32.308594 40.59375 32.207031 C 40.589844 32.207031 40.589844 32.203125 40.589844 32.203125 C 40.503906 31.957031 40.453125 31.695312 40.382812 31.449219 C 40.316406 31.230469 40.234375 31.015625 40.164062 30.800781 C 40.09375 30.570312 40.039062 30.332031 39.96875 30.101562 C 39.828125 29.632812 39.605469 29.183594 39.167969 28.929688 C 38.179688 28.351562 37.007812 28.921875 35.957031 28.652344 C 34.984375 28.402344 34.125 27.738281 33.089844 27.738281 C 32.082031 27.738281 31.246094 28.378906 30.375 28.792969 C 30.15625 28.898438 29.929688 28.988281 29.699219 29.046875 C 29.414062 29.121094 29.121094 29.140625 28.832031 29.175781 C 28.339844 29.242188 27.902344 29.410156 27.523438 29.734375 C 27.183594 30.027344 26.925781 30.417969 26.78125 30.839844 C 26.613281 31.328125 26.652344 31.796875 26.753906 32.289062 C 26.816406 32.582031 26.84375 32.863281 26.777344 33.15625 C 26.71875 33.421875 26.609375 33.671875 26.492188 33.914062 C 26.265625 34.375 26.023438 34.820312 25.902344 35.324219 C 25.789062 35.792969 25.753906 36.304688 25.90625 36.769531 C 26.066406 37.257812 26.414062 37.605469 26.847656 37.867188 C 27.648438 38.351562 28.730469 38.878906 28.773438 39.953125 C 28.785156 40.253906 28.722656 40.550781 28.699219 40.851562 C 28.675781 41.109375 28.6875 41.367188 28.746094 41.625 C 28.851562 42.105469 29.109375 42.546875 29.441406 42.90625 C 30.183594 43.703125 31.296875 44.023438 32.355469 44.050781 C 33.507812 44.082031 34.652344 43.785156 35.65625 43.226562 C 36.140625 42.957031 36.609375 42.640625 37.152344 42.492188 C 37.636719 42.359375 38.148438 42.371094 38.644531 42.421875 C 39.632812 42.527344 40.644531 42.824219 41.640625 42.601562 C 42.140625 42.488281 42.578125 42.226562 42.949219 41.878906 C 43.339844 41.511719 43.691406 41.074219 43.980469 40.621094 C 44.269531 40.175781 44.5 39.644531 44.433594 39.101562 " fill-opacity="1" fill-rule="nonzero"/><path fill="#f16746" d="M 43.253906 38.933594 C 43.199219 38.480469 42.894531 38.164062 42.671875 37.785156 C 42.464844 37.433594 42.460938 37.070312 42.570312 36.6875 C 42.683594 36.304688 42.863281 35.953125 42.996094 35.582031 C 43.125 35.222656 43.207031 34.835938 43.117188 34.460938 C 43.035156 34.113281 42.832031 33.789062 42.519531 33.609375 C 42.214844 33.433594 41.847656 33.410156 41.503906 33.457031 C 41.1875 33.5 40.878906 33.59375 40.558594 33.523438 C 40.519531 33.515625 40.484375 33.507812 40.453125 33.496094 L 40.015625 33.144531 C 39.972656 33.074219 39.933594 32.992188 39.90625 32.90625 C 39.90625 32.902344 39.90625 32.902344 39.90625 32.898438 C 39.832031 32.683594 39.785156 32.457031 39.722656 32.242188 C 39.667969 32.050781 39.59375 31.863281 39.535156 31.675781 C 39.472656 31.472656 39.425781 31.265625 39.363281 31.0625 C 39.242188 30.652344 39.046875 30.261719 38.664062 30.039062 C 37.804688 29.53125 36.777344 30.027344 35.859375 29.792969 C 35.011719 29.574219 34.261719 28.992188 33.355469 28.988281 C 32.476562 28.988281 31.746094 29.546875 30.984375 29.910156 C 30.792969 30 30.59375 30.078125 30.390625 30.128906 C 30.144531 30.195312 29.886719 30.210938 29.636719 30.242188 C 29.207031 30.296875 28.820312 30.445312 28.488281 30.730469 C 28.191406 30.984375 27.964844 31.324219 27.839844 31.691406 C 27.691406 32.117188 27.726562 32.527344 27.816406 32.960938 C 27.867188 33.214844 27.894531 33.457031 27.835938 33.714844 C 27.78125 33.949219 27.6875 34.167969 27.582031 34.378906 C 27.386719 34.78125 27.171875 35.171875 27.066406 35.609375 C 26.964844 36.019531 26.9375 36.464844 27.066406 36.871094 C 27.207031 37.300781 27.511719 37.601562 27.890625 37.832031 C 28.589844 38.257812 29.53125 38.71875 29.570312 39.660156 C 29.578125 39.921875 29.527344 40.183594 29.503906 40.441406 C 29.484375 40.667969 29.492188 40.894531 29.542969 41.117188 C 29.636719 41.539062 29.859375 41.925781 30.152344 42.238281 C 30.796875 42.9375 31.769531 43.21875 32.695312 43.246094 C 33.703125 43.273438 34.703125 43.015625 35.582031 42.527344 C 36.003906 42.289062 36.414062 42.015625 36.886719 41.886719 C 37.3125 41.769531 37.757812 41.78125 38.191406 41.828125 C 39.054688 41.921875 39.941406 42.179688 40.808594 41.988281 C 41.246094 41.890625 41.628906 41.664062 41.953125 41.359375 C 42.296875 41.039062 42.605469 40.65625 42.859375 40.261719 C 43.109375 39.871094 43.3125 39.40625 43.253906 38.933594 " fill-opacity="1" fill-rule="nonzero"/><path fill="#feb6a1" d="M 32.183594 45.703125 C 31.777344 45.398438 31.320312 45.292969 30.820312 45.3125 C 30.492188 45.328125 30.144531 45.355469 29.898438 45.09375 C 29.71875 44.898438 29.617188 44.632812 29.449219 44.421875 C 28.804688 43.601562 27.589844 43.09375 26.597656 43.59375 C 26.164062 43.816406 25.824219 44.207031 25.65625 44.660156 C 25.578125 44.789062 25.523438 44.933594 25.492188 45.089844 C 25.457031 45.289062 25.5 45.480469 25.527344 45.675781 C 25.5625 45.925781 25.671875 46.292969 25.5625 46.527344 C 25.476562 46.714844 25.320312 46.851562 25.234375 47.042969 C 25.125 47.300781 25.074219 47.585938 25.085938 47.867188 C 25.128906 48.832031 25.980469 49.628906 26.964844 49.453125 C 27.605469 49.339844 28.148438 48.9375 28.820312 49.171875 C 29.382812 49.363281 29.84375 49.652344 30.457031 49.675781 C 31.480469 49.707031 32.449219 49.148438 32.839844 48.191406 C 33.203125 47.300781 32.960938 46.285156 32.183594 45.703125 " fill-opacity="1" fill-rule="nonzero"/><path fill="#f16746" d="M 31.390625 46.148438 C 31.085938 45.917969 30.746094 45.84375 30.371094 45.855469 C 30.125 45.867188 29.867188 45.886719 29.683594 45.691406 C 29.546875 45.546875 29.472656 45.347656 29.347656 45.191406 C 28.867188 44.578125 27.957031 44.199219 27.21875 44.574219 C 26.894531 44.738281 26.640625 45.03125 26.515625 45.367188 C 26.457031 45.464844 26.414062 45.574219 26.394531 45.691406 C 26.367188 45.839844 26.398438 45.980469 26.417969 46.128906 C 26.445312 46.3125 26.527344 46.585938 26.445312 46.761719 C 26.382812 46.902344 26.261719 47.007812 26.199219 47.148438 C 26.117188 47.339844 26.082031 47.554688 26.089844 47.761719 C 26.121094 48.484375 26.757812 49.078125 27.492188 48.949219 C 27.972656 48.863281 28.375 48.5625 28.878906 48.738281 C 29.296875 48.882812 29.640625 49.097656 30.101562 49.113281 C 30.863281 49.140625 31.585938 48.722656 31.878906 48.003906 C 32.152344 47.339844 31.96875 46.582031 31.390625 46.148438 " fill-opacity="1" fill-rule="nonzero"/></svg>